# xmcd CD database file
# Copyright (C) 1997 Ti Kan
#
# Track frame offsets:
#  150
#  10540
#  28465
#  39392
#  53397
#  71510
#  85782
#  103922
#  114470
#  126582
#  144710
#  154162
#
# Disc length: 2209 seconds
#
# Revision: 1
# Processed by: cddbd v1.4b41PL1 Copyright (c) Steve Scherf et al.
# Submitted via: CDWizzard Release:4.20
#
DISCID=9f089f0c
DTITLE=Willie Nelson - Always
DYEAR=1900
DGENRE=
TTITLE0=Always
TTITLE1=Danny Boy
TTITLE2=On The Road Again
TTITLE3=My Heroes Have Always Been Cowboys
TTITLE4=Help Me Make It Through The Night
TTITLE5=Far Away Places
TTITLE6=Tenderly
TTITLE7=Blue Eyes Crying In The Rain
TTITLE8=That Lucky Old Sun
TTITLE9=Red Headed Stranger
TTITLE10=Because Of You
TTITLE11=One For My Baby and "One More For The Road"
EXTD=
EXTT0=
EXTT1=
EXTT2=
EXTT3=
EXTT4=
EXTT5=
EXTT6=
EXTT7=
EXTT8=
EXTT9=
EXTT10=
EXTT11=
PLAYORDER=
